<svg width="53" height="41" viewBox="0 0 53 41" fill="none" xmlns="http://www.w3.org/2000/svg">
<path d="M47.7 35.875H42.4V13.4531L26.5 23.0625L10.6 13.4531V35.875H5.3V5.125H8.48L26.5 16.0156L44.52 5.125H47.7M47.7 0H5.3C2.3585 0 0 2.28062 0 5.125V35.875C0 37.2342 0.558391 38.5378 1.55233 39.4989C2.54628 40.46 3.89435 41 5.3 41H47.7C49.1056 41 50.4537 40.46 51.4477 39.4989C52.4416 38.5378 53 37.2342 53 35.875V5.125C53 3.76577 52.4416 2.4622 51.4477 1.50108C50.4537 0.539954 49.1056 0 47.7 0Z" fill="#000000"/>
</svg>
