<svg width="37" height="36" viewBox="0 0 37 36" fill="none" xmlns="http://www.w3.org/2000/svg">
<path d="M7.44111 15.58C10.4011 21.24 15.17 25.88 20.9872 28.76L25.5094 24.36C26.085 23.8 26.8867 23.64 27.6061 23.86C29.9083 24.6 32.375 25 34.9444 25C35.4896 25 36.0125 25.2107 36.3979 25.5858C36.7834 25.9609 37 26.4696 37 27V34C37 34.5304 36.7834 35.0391 36.3979 35.4142C36.0125 35.7893 35.4896 36 34.9444 36C25.6766 36 16.7883 32.4179 10.235 26.0416C3.68164 19.6654 0 11.0174 0 2C0 1.46957 0.216567 0.960859 0.602058 0.585786C0.98755 0.210714 1.51039 0 2.05556 0H9.25C9.79517 0 10.318 0.210714 10.7035 0.585786C11.089 0.960859 11.3056 1.46957 11.3056 2C11.3056 4.5 11.7167 6.9 12.4772 9.14C12.7033 9.84 12.5389 10.62 11.9633 11.18L7.44111 15.58Z" fill="#000000"/>
</svg>
