<svg width="56" height="53" viewBox="0 0 56 53" fill="none" xmlns="http://www.w3.org/2000/svg">
<path d="M53.375 26.5094V47.4211C53.375 48.8076 52.8394 50.1374 51.8861 51.1178C50.9328 52.0982 49.6398 52.649 48.2917 52.649H7.625C6.27682 52.649 4.98385 52.0982 4.03054 51.1178C3.07723 50.1374 2.54167 48.8076 2.54167 47.4211V26.5094C1.86757 26.5094 1.22109 26.234 0.744437 25.7438C0.267782 25.2536 0 24.5888 0 23.8955V16.0536C0 14.6671 0.535564 13.3373 1.48887 12.3569C2.44218 11.3765 3.73515 10.8257 5.08333 10.8257H13.1404C12.8532 9.98592 12.707 9.10197 12.7083 8.21174C12.7083 6.13195 13.5117 4.13734 14.9416 2.6667C16.3716 1.19607 18.3111 0.369873 20.3333 0.369873C22.875 0.369873 25.1117 1.67685 26.5096 3.61118V3.58504L27.9583 5.59779L29.4071 3.58504V3.61118C30.805 1.67685 33.0417 0.369873 35.5833 0.369873C37.6056 0.369873 39.5451 1.19607 40.975 2.6667C42.405 4.13734 43.2083 6.13195 43.2083 8.21174C43.2096 9.10197 43.0635 9.98592 42.7762 10.8257H50.8333C52.1815 10.8257 53.4745 11.3765 54.4278 12.3569C55.3811 13.3373 55.9167 14.6671 55.9167 16.0536V23.8955C55.9167 24.5888 55.6489 25.2536 55.1722 25.7438C54.6956 26.234 54.0491 26.5094 53.375 26.5094ZM7.625 47.4211H25.4167V26.5094H7.625V47.4211ZM48.2917 47.4211V26.5094H30.5V47.4211H48.2917ZM20.3333 5.59779C19.6592 5.59779 19.0128 5.87319 18.5361 6.3634C18.0594 6.85361 17.7917 7.51848 17.7917 8.21174C17.7917 8.90501 18.0594 9.56988 18.5361 10.0601C19.0128 10.5503 19.6592 10.8257 20.3333 10.8257C21.0074 10.8257 21.6539 10.5503 22.1306 10.0601C22.6072 9.56988 22.875 8.90501 22.875 8.21174C22.875 7.51848 22.6072 6.85361 22.1306 6.3634C21.6539 5.87319 21.0074 5.59779 20.3333 5.59779ZM35.5833 5.59779C34.9092 5.59779 34.2628 5.87319 33.7861 6.3634C33.3094 6.85361 33.0417 7.51848 33.0417 8.21174C33.0417 8.90501 33.3094 9.56988 33.7861 10.0601C34.2628 10.5503 34.9092 10.8257 35.5833 10.8257C36.2574 10.8257 36.9039 10.5503 37.3806 10.0601C37.8572 9.56988 38.125 8.90501 38.125 8.21174C38.125 7.51848 37.8572 6.85361 37.3806 6.3634C36.9039 5.87319 36.2574 5.59779 35.5833 5.59779ZM5.08333 16.0536V21.2815H25.4167V16.0536H5.08333ZM30.5 16.0536V21.2815H50.8333V16.0536H30.5Z" fill="white"/>
</svg>
