<svg width="70" height="56" viewBox="0 0 70 56" fill="none" xmlns="http://www.w3.org/2000/svg">
<path d="M1.73267 0.353027C1.27314 0.353027 0.832428 0.5189 0.507488 0.814156C0.182549 1.10941 0 1.50986 0 1.92742V46.6402C0 47.0577 0.182549 47.4582 0.507488 47.7534C0.832428 48.0487 1.27314 48.2146 1.73267 48.2146H48.0851C47.4794 47.4903 46.875 46.7655 46.2665 46.0419C45.5097 45.0274 44.4105 44.1589 44.0882 42.9259C39.6318 44.5972 34.5114 44.7522 29.9385 43.3648C29.838 43.3352 29.7396 43.2987 29.6398 43.2678C29.1151 43.7338 28.5496 44.5462 28.4602 45.0658H21.8712C22.366 43.5424 21.3153 41.1638 22.3092 39.6133C22.3882 39.5944 22.4839 39.4729 22.5275 39.3476C22.4152 39.2519 22.3016 39.1586 22.1921 39.061C21.2176 39.3306 20.8281 39.9975 20.2861 40.5825C20.5821 41.8572 18.446 41.5555 18.6616 42.856C20.1496 43.9045 17.2879 43.1053 16.4368 43.1891C15.5338 43.1979 12.8918 42.3389 13.8087 44.0959C13.6652 44.5783 13.7976 44.8743 14.0617 45.0658H13.6569C13.5939 44.5141 12.4503 44.4322 12.0095 44.1614C11.2672 43.9977 10.3808 43.9158 9.61218 43.6047C9.41465 44.1035 7.63208 44.6741 7.24188 45.0658H3.46535V22.0601C3.99693 22.3838 5.18901 22.2553 3.56446 21.5563H3.46535V14.3053C3.78069 14.1604 4.00594 14.1145 3.99208 14.3569C4.77317 14.1176 5.11347 12.3902 6.46495 13.0974C7.30772 13.2101 8.70218 14.3972 8.00148 14.5459C8.54762 15.7575 8.93505 14.9772 9.60525 16.4213C9.14644 18.3962 10.9034 19.8597 11.8674 21.1186C13.0221 21.5544 13.4788 22.9109 15.3556 22.9638C15.6107 23.1666 15.9378 23.3505 16.2788 23.5268C16.3724 22.8757 16.5048 22.2295 16.6718 21.591C16.6267 21.5815 16.5831 21.5758 16.5346 21.5614C14.7291 23.0747 14.359 20.4549 16.1222 20.3522C16.24 20.3453 16.3668 20.351 16.5034 20.368C16.7078 20.3459 16.8776 20.368 17.0211 20.4139C17.6001 18.6892 18.458 17.0522 19.5667 15.5566C20.1621 14.7493 20.8305 13.9885 21.5648 13.2819C21.2003 12.7278 20.8274 12.4185 20.3873 13.1421C20.3541 12.0684 17.159 10.943 19.5099 11.9733C20.7429 12.9387 21.1469 11.8058 21.3417 11.0324C22.3986 10.0311 20.2584 9.68917 20.6486 9.03486C19.9999 8.15131 19.0393 7.24635 18.0524 6.69909C16.1381 6.90061 15.4672 6.53346 18.0267 6.5322C18.2575 5.44587 18.6408 4.67631 18.9049 3.7619C18.6276 3.68948 18.3379 3.70082 18.0524 3.70019C16.8277 3.55093 16.1007 3.98106 16.1256 4.8306C15.2059 4.76385 16.0321 3.33934 14.6141 3.7745C12.4642 3.74364 15.0632 4.40362 14.8636 4.49872C14.6175 5 13.0685 4.68764 13.2508 5.19586C12.5411 4.0031 12.2181 5.76453 11.6657 4.55791C11.3331 4.26823 13.0588 4.84382 12.6658 3.78772C11.7967 3.48544 11.4855 4.01443 10.8084 4.23044C8.78743 5.24687 11.1612 6.20284 12.1876 6.54165C13.7346 6.16694 13.7332 5.69337 14.8088 6.21418C16.0148 6.82189 13.5911 6.39492 13.6652 7.33011C13.5266 6.74884 13.3534 6.39806 12.6049 7.14307C11.6068 7.3068 11.1612 6.06051 10.4161 6.14805C8.71812 5.93834 9.35228 9.4083 10.7509 8.22688C11.5971 9.55756 9.6697 8.57576 9.09792 8.42714C7.80673 9.73767 6.41574 8.39314 4.87436 8.33898C4.38089 8.04047 3.89713 8.03669 3.46535 8.18846V3.50181H21.6397C20.3437 3.53393 19.1862 3.68948 19.6575 4.5365C19.5813 6.17009 21.9072 4.87279 22.242 6.3502C23.2081 7.38238 21.6674 9.57708 23.3384 9.19167C22.7237 9.87117 22.8006 10.9537 23.2802 11.807C25.0544 10.454 27.0665 9.38186 29.2323 8.63559C29.2704 8.44163 29.2406 8.21869 29.1131 7.95545C28.8961 6.96737 29.9052 6.65186 29.5518 5.55608C30.0272 4.7311 29.6585 3.85825 28.8435 3.50181H66.5347V7.95923C66.4271 7.91736 66.3167 7.88202 66.2041 7.85343C65.2275 8.65763 66.0169 8.73383 66.5347 8.55309V9.2559C65.38 8.66582 64.1117 8.60095 62.8801 8.84656C62.3208 7.96301 60.3407 7.98379 59.6892 7.18841C58.5415 5.93897 60.0392 6.31179 61.0407 6.21544C60.7565 5.43454 59.0516 5.06424 58.3315 5.19334C57.0306 5.84073 59.0149 6.42137 58.8146 7.29043C58.8146 7.92208 57.9669 7.92649 57.2274 7.89185C57.5261 7.22305 55.8115 6.40058 55.1316 6.94469C53.8446 6.59077 53.3539 6.79859 54.2029 5.58064C53.9062 4.64419 52.6802 4.62656 52.1306 3.97665C51.4285 5.32937 50.2579 4.9194 49.0035 5.74312C48.501 6.41066 47.4545 7.01019 47.4025 7.45102C46.6248 7.7829 45.8465 6.08948 45.3011 7.58956C44.8062 8.85915 45.3288 9.47443 43.6592 8.43533C41.9314 6.76206 47.1301 5.32874 45.1978 4.61648C43.5941 5.04157 42.63 6.0687 42.3112 7.52785C42.1386 7.85973 42.2169 8.09085 42.3992 8.27789C48.4871 9.92785 53.525 14.3765 55.5731 19.8339C55.6049 19.5052 55.6652 19.1891 55.7865 18.9579C56.2987 18.6028 55.8926 20.3214 56.9509 19.344C56.1712 20.8648 58.9109 19.5455 59.2817 18.9176C58.7383 17.6783 61.2361 17.0945 61.1779 16.8608C60.2582 15.9842 60.7808 16.8564 59.7661 17.0573C59.43 16.6505 60.4107 14.4199 59.1056 14.6246C57.1567 14.1686 60.7635 12.8644 61.7372 13.3443C62.1808 11.853 62.8184 13.0407 61.7227 13.7265C61.3054 15.0497 61.505 16.8545 62.7325 15.0862C63.2842 14.5981 63.1469 13.326 63.8649 13.1043C64.8297 12.6912 66.5513 12.3682 66.5062 11.091C66.5159 11.0885 66.5249 11.0891 66.5347 11.0872V45.0658H63.7908C64.3854 44.3176 65.1721 43.038 64.339 42.5738C63.0839 42.3767 62.1461 41.0013 60.629 41.0586C59.9443 40.342 58.3675 39.9792 57.9434 39.8394C57.5192 39.6996 56.7832 40.5076 56.0291 40.1505C55.8022 40.1172 55.5705 40.1211 55.3451 40.1619C57.6142 42.8383 59.8618 45.5293 62.1177 48.2146H68.2673C68.7269 48.2146 69.1676 48.0487 69.4925 47.7534C69.8175 47.4582 70 47.0577 70 46.6402V1.92742C70 1.50986 69.8175 1.10941 69.4925 0.814156C69.1676 0.5189 68.7269 0.353027 68.2673 0.353027H1.73267ZM35.4782 3.70333C34.3624 4.20273 36.3411 6.19088 36.3958 4.29279C36.6003 4.56988 37.9719 4.84949 37.5235 3.95587C36.5268 3.42246 36.6779 4.03585 35.4775 3.70396M51.4743 3.70522C50.2704 4.238 52.5277 4.24807 51.4743 3.70522V3.70522ZM13.2307 3.88596C12.3297 4.49431 14.5531 5.09636 13.3485 3.91808L13.2307 3.88596ZM20.6084 4.24682C20.3859 4.3734 20.8337 4.4433 20.6084 4.24682V4.24682ZM11.9069 5.02456C11.8515 5.03275 12.013 5.13603 11.9069 5.02456V5.02456ZM14.9932 5.28402C14.91 5.68707 16.0792 5.45532 14.9932 5.28402V5.28402ZM16.5145 5.39738C16.8936 5.63039 17.5471 5.33755 16.5145 5.39738V5.39738ZM13.4823 5.43894C13.3963 5.72171 14.1539 5.50192 13.4823 5.43894V5.43894ZM15.6322 6.32564C15.2981 6.51772 16.3114 6.46797 15.6322 6.32564V6.32564ZM16.1111 7.30743C15.7022 8.49264 17.5645 10.0973 16.1194 8.74643C15.7223 8.2061 15.5157 7.68844 16.1111 7.30743ZM13.6867 7.42709C14.2821 8.33079 15.1886 8.57199 14.4297 8.88309C13.9258 8.66141 13.8094 7.9712 13.6867 7.42709ZM23.0286 8.33772C22.8027 8.35031 23.1125 8.38873 23.0286 8.33772V8.33772ZM8.97594 8.623C8.86852 8.6274 8.89832 8.90891 8.97594 8.623V8.623ZM14.3431 9.08524C14.0263 9.07453 14.2946 9.68099 14.3431 9.08524V9.08524ZM18.3268 9.08902C18.0676 10.2541 19.0961 10.1798 19.0268 10.2969C18.1771 10.637 18.3802 12.0375 17.7301 10.9688C17.3198 10.795 17.9408 9.25716 18.2201 9.12239L18.3268 9.08902ZM14.1497 9.09028C14.1435 9.36296 14.2405 9.10917 14.1497 9.09028V9.09028ZM64.2836 9.19482C64.163 9.30188 64.3113 9.23764 64.2836 9.19482V9.19482ZM14.1996 9.34722C13.5661 9.75656 14.6723 9.79686 14.1996 9.34722V9.34722ZM36.224 9.96627C32.4446 9.99012 28.7761 11.1292 25.7711 13.212C18.0849 18.5303 16.5893 28.5561 22.4423 35.5401C27.921 42.0776 37.9254 43.6545 45.4868 39.4685L46.9312 41.1921C46.647 41.7929 46.6734 42.3673 47.004 42.7628L57.4832 55.2666C58.1069 56.0103 59.613 55.9215 60.8466 55.0676C62.0803 54.2143 62.5745 52.9188 61.9514 52.1745L51.4722 39.6706C51.1409 39.2752 50.5386 39.0988 49.8254 39.1883L48.3811 37.4652C54.8329 31.9549 55.8219 22.773 50.3439 16.2355C47.417 12.7435 43.1949 10.659 38.744 10.1111C37.9088 10.0084 37.0667 9.95997 36.224 9.96627ZM16.5484 11.5457C16.9816 12.4803 18.6547 11.9317 17.9997 13.2057C18.7288 13.8292 17.884 16.0271 17.6005 14.1542C15.786 14.146 14.9197 12.501 16.4431 11.6376L16.5484 11.5457ZM18.1293 11.7006C17.256 11.9393 18.6838 12.1289 18.1293 11.7006V11.7006ZM61.6735 12.8518C61.722 12.8203 61.8426 13.0464 61.6735 12.8518V12.8518ZM36.9219 13.4948C38.9332 13.5645 40.9023 14.039 42.6873 14.8841C44.4723 15.7292 46.0285 16.9238 47.2438 18.3817C48.3325 19.6751 49.1293 21.151 49.5886 22.725C50.0479 24.2989 50.1605 25.9397 49.9201 27.5533C49.6796 29.1669 49.0908 30.7214 48.1874 32.1277C47.284 33.5339 46.0839 34.7642 44.6558 35.7479C43.2324 36.7372 41.608 37.4614 39.8758 37.8788C38.1436 38.2961 36.3377 38.3985 34.5618 38.18C32.7859 37.9615 31.075 37.4265 29.5274 36.6056C27.9797 35.7846 26.6257 34.694 25.5431 33.3964C24.4544 32.103 23.6576 30.627 23.1984 29.053C22.7391 27.4791 22.6266 25.8382 22.8671 24.2247C23.1076 22.6111 23.6965 21.0566 24.5999 19.6503C25.5034 18.2441 26.7036 17.0138 28.1317 16.0302C30.6471 14.2801 33.7562 13.3833 36.9219 13.4948ZM63.666 14.1434C62.5779 14.9615 64.9725 14.8116 63.666 14.1434V14.1434ZM64.9621 14.8248C63.7575 15.3595 66.0149 15.3601 64.9621 14.8248V14.8248ZM65.7466 15.0742C64.6724 15.8866 66.8417 15.4596 65.7466 15.0742V15.0742ZM65.7037 15.2506C65.6669 15.3079 65.7633 15.2499 65.7037 15.2506V15.2506ZM65.8062 15.352C65.7196 15.362 65.8388 15.3998 65.8062 15.352V15.352ZM36.4624 16.0088C34.9473 15.9842 33.4517 16.2922 32.0725 16.8451C32.1446 16.9251 32.2478 17.0019 32.3989 17.0712C31.0128 16.6618 30.6094 18.2532 31.193 18.9693L32.1307 19.0392L32.9146 18.7256C33.4212 18.2469 33.5473 18.3294 33.7109 17.6046L34.0165 17.6405L34.2591 17.5485L34.8115 17.7967C35.4741 18.0322 35.5052 18.5398 35.2835 18.6884C34.9695 18.8641 35.3396 18.8899 35.3701 18.9989C35.5267 18.9579 35.6182 18.8351 35.7166 18.7696L35.8941 18.7117C36.5414 18.3257 36.0895 18.1985 35.6397 17.6776L35.8781 17.7331C36.2267 18.092 36.4319 18.4982 36.6384 18.9296C36.662 18.9466 36.6835 18.9686 36.7105 18.9762C36.8671 19.0234 37.0882 19.0077 37.2774 18.9605C37.4646 18.9139 37.477 18.5895 37.4451 18.2791C37.712 19.3849 40.329 19.0562 38.7717 19.7306C37.8742 19.7489 36.4478 19.3018 36.1851 19.8667C35.6044 19.6274 35.3077 19.4706 35.1899 19.3478C34.8323 19.2256 33.8031 18.8717 33.7663 18.8717C33.7227 18.8717 32.4128 19.0883 32.4128 19.0883L31.3316 19.4611C30.9802 20.4901 30.4257 19.9397 30.2372 20.7376C30.0896 21.2477 28.8192 22.3498 29.4846 23.2176C30.0785 25.7278 33.5224 24.0565 34.325 25.2618C33.9479 26.0043 35.813 27.4168 34.7692 28.6329C35.2613 30.3994 36.5837 33.3523 38.7114 30.8383C39.2728 29.3332 40.4815 28.5195 40.4385 27.0264C39.796 25.5559 43.5781 24.4658 42.0651 23.2749C41.7027 23.314 41.6611 23.3851 41.3735 23.472C40.7691 23.4513 40.6132 23.0085 40.4073 22.7302C40.2501 22.5271 40.1111 22.3129 39.9915 22.0897C40.3761 22.6313 40.7733 23.091 41.3305 23.3738C42.2946 23.1773 43.4 22.5293 43.8498 22.0538C43.8387 20.2004 46.5805 22.1231 46.525 23.5161C46.6948 23.8915 46.9104 24.1522 47.1266 24.3046C46.9729 23.4137 46.6803 22.5472 46.2575 21.7314C45.4889 20.1986 44.258 18.8824 42.7624 17.8974C42.7347 17.9365 42.6653 17.939 42.6792 17.8445C42.4769 17.7144 42.2701 17.5902 42.0589 17.4723C42.0818 17.5599 42.1095 17.6487 42.1414 17.7387C42.0506 17.6159 41.9549 17.4912 41.8759 17.3709C40.2431 16.4968 38.3704 15.9956 36.4631 16.0082L36.4624 16.0088ZM59.0128 16.0919C59.5152 17.393 57.2649 20.4083 56.9377 18.4289C57.1685 17.4503 59.0155 17.5977 59.0128 16.0919ZM16.8222 16.4358C16.8062 16.483 16.9234 16.4251 16.8222 16.4358V16.4358ZM17.8902 16.8936C17.6462 17.0082 18.0919 17.046 17.8902 16.8936V16.8936ZM38.7017 16.9352C39.261 17.3634 40.977 17.9302 39.1605 17.478C38.2151 17.8703 37.9227 17.6191 38.7017 16.9352ZM34.3783 17.6972C34.2563 17.7312 34.3596 17.961 34.2834 18.0335C34.8032 18.2646 34.5121 17.8149 34.589 17.7412C34.4837 17.6959 34.4185 17.6852 34.3783 17.6972ZM42.3022 18.1663C42.463 18.5461 42.5697 18.7885 42.1566 18.3175C42.1908 18.3024 42.2212 18.2812 42.2462 18.2553C42.2712 18.2293 42.2903 18.1991 42.3022 18.1663ZM34.4268 18.2136C34.2231 18.1934 34.1149 18.3175 34.1143 18.4907C34.6514 18.7558 34.5959 18.3181 34.6618 18.2847C34.5887 18.2481 34.5095 18.224 34.4268 18.2136ZM42.7249 20.9108C43.0313 20.9222 42.4318 21.3139 42.5344 20.9329C42.6196 20.9159 42.6813 20.9089 42.7249 20.9108ZM63.8365 23.3744C62.8385 24.338 65.0258 24.5074 63.8365 23.3744V23.3744ZM63.7672 23.5243C63.7485 23.5885 63.8698 23.5142 63.7672 23.5243V23.5243ZM63.8532 23.6622C63.7492 23.6465 63.8629 23.7271 63.8532 23.6622V23.6622ZM64.5788 23.7882C63.612 24.5527 65.7459 24.2743 64.5788 23.7882V23.7882ZM64.6828 24.0054C64.6689 24.098 64.7562 23.9941 64.6828 24.0054V24.0054ZM64.5462 24.0388C64.4901 24.0829 64.61 24.1169 64.5462 24.0388V24.0388ZM56.6473 25.0288C56.6647 25.4218 56.6681 25.8141 56.6584 26.2064C57.4534 26.3217 58.4493 26.2889 58.468 27.0881C59.893 27.1441 58.3211 29.0353 58.2691 27.2846C57.6886 27.2086 57.0965 27.2998 56.5759 27.5453C56.4313 28.9195 56.1218 30.2753 55.6528 31.5883C56.8171 31.2527 58.005 31.2854 58.7064 32.3138C60.5535 32.3075 58.9823 33.4518 60.2915 33.6854C60.8494 32.6501 59.9976 32.7805 61.0442 31.9366C62.0595 30.7571 61.3948 29.2337 60.3823 28.5894C60.1716 27.8602 59.3323 27.466 59.7273 26.9684C60.4966 27.9162 61.5868 27.2065 60.6768 26.6939C61.3484 26.1239 63.7478 28.1625 62.4005 26.5944C61.7351 26.4823 60.821 25.2322 60.6138 26.037C60.5542 26.7046 58.721 25.0238 58.0446 25.7115C57.8491 25.0918 56.8927 25.4658 56.8386 25.7423C57.1325 25.3267 56.9474 25.1119 56.6473 25.0288ZM60.1737 25.5672C59.1805 26.0799 61.0705 26.0622 60.1737 25.5672V25.5672ZM34.2286 25.6113C34.2057 25.6384 34.3083 25.7751 34.2286 25.6113V25.6113ZM25.5285 25.6882C25.5079 26.5626 25.6149 27.4357 25.8466 28.2846C26.6437 27.1876 26.6125 26.1573 25.5285 25.6882ZM60.1224 25.7184C60.0489 25.7335 60.182 25.7574 60.1224 25.7184V25.7184ZM60.794 25.7939C60.4696 26.0018 61.1176 26.0018 60.794 25.7939V25.7939ZM60.794 25.8002C60.4987 25.993 61.0885 25.993 60.794 25.8002V25.8002ZM60.1889 25.855C60.0863 25.8437 60.2 25.9186 60.1889 25.855V25.855ZM56.6529 26.539C56.6459 26.6901 56.6314 26.8412 56.6203 26.9924C56.8442 26.7631 56.9412 26.5264 56.6529 26.539ZM40.8564 27.1914C40.0552 27.5913 41.7138 27.7739 41.0207 27.3047L40.9909 27.2374L40.8564 27.1914ZM41.7935 27.3035C41.002 27.7531 39.7739 29.8968 41.4767 29.9642C41.887 29.5209 42.9273 27.544 41.7935 27.3035ZM63.262 28.6688C62.6278 29.8055 65.1035 29.3508 63.262 28.6688V28.6688ZM43.0618 28.8199C42.0319 29.4478 44.0605 29.3685 43.0618 28.8199V28.8199ZM64.9149 31.412C65.5013 32.618 63.5565 33.3403 63.7035 34.46C64.7015 34.8971 65.2164 33.2522 65.9192 32.749C66.7502 32.089 65.2649 31.8938 64.9149 31.412ZM18.8203 35.1213C18.934 35.785 19.2763 36.4274 19.8876 36.6233C19.5054 36.1385 19.1492 35.6373 18.8203 35.1213Z" fill="white"/>
</svg>
