<svg width="57" height="61" viewBox="0 0 57 61" fill="none" xmlns="http://www.w3.org/2000/svg">
<path d="M4.52293 2.24719L52.7355 50.4597C53.6503 51.3746 54.1642 52.6154 54.1642 53.9092C54.1642 55.2029 53.6503 56.4437 52.7355 57.3586C51.8204 58.2731 50.5797 58.7868 49.286 58.7868C47.9923 58.7868 46.7516 58.2731 45.8365 57.3586L34.0592 45.3784C33.2885 44.5958 32.8561 43.5417 32.8553 42.4433V41.7196C32.8554 41.165 32.7453 40.6159 32.5315 40.1041C32.3176 39.5924 32.0042 39.1283 31.6095 38.7386L30.0889 37.3345C29.5727 36.8582 28.945 36.5194 28.2636 36.3493C27.5821 36.1791 26.8688 36.1831 26.1893 36.3609C25.1178 36.6406 23.9918 36.6352 22.923 36.3453C21.8542 36.0553 20.8798 35.491 20.0965 34.7082L8.91719 23.5275C2.28524 16.8956 -0.155291 6.88092 4.52293 2.24719Z" stroke="white" stroke-width="3.75" stroke-linejoin="round"/>
</svg>
