<svg width="85" height="85" viewBox="0 0 85 85" fill="none" xmlns="http://www.w3.org/2000/svg">
<path d="M18.8133 15.98C18.4544 16.5656 17.6139 17.935 16.9527 19.0306C16.2822 20.1167 14.2516 23.46 12.4383 26.4445C10.6155 29.4289 8.54719 32.8289 7.83886 34C7.12108 35.1711 6.12941 36.805 5.61941 37.6361C2.22886 43.1895 1.1333 45.0123 1.1333 45.0973C1.1333 45.1445 2.95608 46.2967 5.17552 47.6473C7.39497 48.9978 9.36886 50.1973 9.55775 50.32L9.89775 50.5373L10.54 49.47C11.4939 47.8739 11.3994 47.9684 11.5789 48.4123C12.0039 49.4228 13.0522 50.7167 14.0344 51.4439C14.365 51.6895 14.62 51.935 14.6011 51.9917C13.9966 53.3234 13.8361 54.1639 13.9683 55.25C14.1383 56.5628 14.6483 57.5356 15.6683 58.48C16.6694 59.415 17.8594 59.8306 19.2855 59.7645L20.1166 59.7267V60.0761C20.1166 61.03 20.5605 62.2389 21.25 63.155C21.7222 63.7689 22.6289 64.43 23.4789 64.7606C24.055 64.9778 24.2627 65.0156 25.2166 65.0156C26.18 65.0156 26.3689 64.9873 26.9261 64.7606C27.2661 64.6189 27.5777 64.5056 27.6061 64.5056C27.6439 64.5056 27.6722 64.7984 27.6722 65.1478C27.6722 67.6978 29.6461 69.7 32.1677 69.7C32.5927 69.7 32.8666 69.7378 32.8666 69.7945C32.8666 69.9834 33.7639 70.8617 34.3305 71.23C34.6327 71.4284 35.2372 71.7023 35.6716 71.8439C37.0222 72.2595 38.3916 72.0517 39.5816 71.2489C39.8461 71.0695 40.1011 70.9278 40.1389 70.9278C40.2522 70.9278 42.67 72.42 43.2083 72.8261C44.4077 73.7234 46.0322 74.3278 47.4772 74.3939C48.7239 74.46 49.4133 74.3278 50.49 73.8084C51.3872 73.3739 52.445 72.4956 53.0305 71.6928C53.2761 71.3623 53.3611 71.3056 53.6916 71.3056C54.2677 71.2961 55.1933 71.0506 55.9583 70.7011C57.97 69.7756 59.2355 68.2456 59.5378 66.385C59.5944 66.0545 59.6133 66.0356 60.0666 65.9789C62.0405 65.7145 63.9672 64.43 64.7416 62.8623C65.0533 62.2484 65.1383 61.9084 65.3177 60.5767C65.3555 60.2934 65.3839 60.2745 66.1678 60.0856C67.3766 59.7834 68.3022 59.2923 69.0955 58.5084C69.5016 58.1023 69.8605 57.6489 70.0116 57.3278C70.72 55.8545 70.72 54.2111 70.0305 52.6528C69.8983 52.3506 69.8039 52.0956 69.8133 52.0956C69.8322 52.0861 70.0872 51.9161 70.38 51.7178C71.4 51.0378 72.1933 49.6684 72.5711 47.9589C72.675 47.4489 72.7883 47.0334 72.8166 47.0334C72.8544 47.0428 74.0066 48.9317 74.9039 50.4428C74.9322 50.49 76.7833 49.4134 79.0122 48.0534C81.2411 46.6934 83.2244 45.4939 83.4133 45.39C83.6116 45.2767 83.7722 45.1634 83.7722 45.1256C83.7722 45.0973 82.535 43.0289 81.0144 40.545C76.4528 33.0461 73.2133 27.7384 69.4639 21.5806C65.9789 15.8573 65.6389 15.3 65.4594 15.0261C65.3933 14.9223 65.2422 14.9789 64.685 15.3189C64.2978 15.555 62.3333 16.7545 60.3027 17.9917C58.2816 19.2195 56.6005 20.2489 56.5816 20.2584C56.5722 20.2773 56.7705 20.6645 57.0444 21.1084C57.3183 21.5523 57.5166 21.9395 57.4977 21.9678C57.4694 21.9867 56.8366 21.9017 56.0905 21.7789C53.6727 21.3728 52.6339 21.2973 49.3 21.2973C46.2211 21.2973 45.2766 21.3539 42.5094 21.6939C41.31 21.8356 41.1966 21.8356 40.1011 21.6656C38.7222 21.4484 34.9633 21.42 33.2444 21.6089C31.7805 21.7789 29.2777 22.1661 27.9839 22.4211C27.3983 22.5439 26.9166 22.6289 26.9166 22.61C26.9166 22.5911 27.2189 22.0906 27.5872 21.4956C27.9555 20.8911 28.2389 20.3528 28.22 20.2961C28.1916 20.2206 19.6066 14.9223 19.4933 14.9223C19.4839 14.9223 19.1722 15.4039 18.8133 15.98ZM54.0033 23.8378C56.2416 24.1306 59.0183 24.7823 59.4055 25.1128C59.5094 25.1978 60.35 26.52 61.2755 28.05C62.2105 29.58 64.6755 33.6411 66.7722 37.0695L70.5689 43.3028L70.5216 44.9556C70.4461 47.4111 70.1061 48.6767 69.3033 49.5173L68.8689 49.98L68.1227 49.9139C67.2728 49.8384 67.6128 50.1028 64.4583 47.0334C63.4761 46.07 61.115 43.775 59.2166 41.9334C57.3183 40.0917 55.0705 37.8911 54.2111 37.0506L52.6528 35.5111L53.125 35.6528C53.3894 35.7284 53.8522 35.87 54.1544 35.9834C54.4661 36.0873 54.8344 36.1723 54.995 36.1723C55.8639 36.1723 56.3927 35.1145 55.8922 34.3778C55.6372 34 55.0989 33.7639 53.4083 33.2823C49.6494 32.1867 47.1183 32.0734 44.9083 32.895C42.8589 33.6506 39.1094 35.9456 33.8583 39.6573C32.8194 40.3845 31.7427 41.1023 31.4689 41.2345C29.9294 42.0089 28.3333 40.7339 28.3333 38.7317C28.3333 38.1745 28.3711 38.0517 28.6733 37.5889C30.0522 35.4923 34.5761 31.1195 40.6111 26.0573C41.8011 25.0656 41.9994 24.9239 43.2178 24.2628C43.9072 23.885 44.1244 23.8473 46.5139 23.6678C47.7228 23.5734 52.8983 23.6961 54.0033 23.8378ZM38.6089 23.8661C39.0339 23.8945 39.3833 23.9511 39.3739 23.9795C39.3739 24.0078 38.5333 24.7445 37.5133 25.6134C32.6966 29.6934 28.6166 33.66 27.0394 35.7945C26.8222 36.0778 26.5105 36.5878 26.3405 36.9278C26.0289 37.5323 26.0194 37.57 26.0194 38.7223C26.0194 40.0823 26.18 40.6773 26.8316 41.6973C27.4361 42.6606 28.22 43.2745 29.2966 43.6428C29.7877 43.8034 30.0427 43.8317 30.7416 43.7939C31.9411 43.7373 32.4983 43.4728 34.5666 42.0278C39.7422 38.42 42.7833 36.465 44.625 35.5961C46.0133 34.9445 46.6933 34.7461 47.6661 34.7273L48.4972 34.7084L50.4333 36.6539C53.7389 39.9595 65.9128 51.7556 66.2339 51.9445C66.4039 52.0484 66.6683 52.1334 66.8289 52.1334C67.1122 52.1334 67.15 52.1806 67.6222 53.1156C68.0378 53.9467 68.1227 54.2017 68.17 54.7589C68.2833 56.3739 67.3105 57.4506 65.365 57.8473C64.4583 58.0456 63.9105 57.9323 62.6639 57.3278C61.5589 56.78 60.5011 56.0434 58.9805 54.7306C57.8377 53.7389 57.4222 53.5123 56.9405 53.6161C56.5628 53.6917 56.1189 54.145 56.0433 54.5417C55.9489 55.08 56.2322 55.4861 57.4694 56.5534C59.2922 58.1211 61.1528 59.3584 62.3522 59.7928C62.9661 60.0195 63.0322 60.1517 62.9 60.9356C62.7866 61.6628 62.5222 62.135 61.965 62.6356C61.1244 63.3911 59.4433 63.8917 58.6594 63.6273C57.8566 63.3439 55.8166 61.8139 53.5783 59.8023C52.87 59.1695 52.3128 58.7445 52.1522 58.7161C51.3211 58.5461 50.6033 59.2734 50.7544 60.1045C50.8016 60.3311 51.0189 60.6145 51.5477 61.1245C53.125 62.645 55.6561 64.6756 56.7516 65.2895L57.2522 65.5728L57.205 66.045C56.9972 67.7828 54.4 69.3411 52.5961 68.8217C51.4816 68.4911 49.47 67.2823 47.5527 65.7806C47.0333 65.365 46.4855 64.9778 46.3439 64.9023C45.9566 64.7134 45.4561 64.8361 45.0783 65.2139C44.8139 65.4784 44.7666 65.5917 44.7666 65.96C44.7666 66.3284 44.8233 66.4511 45.1161 66.7817C45.8433 67.5845 48.6483 69.5584 50.1594 70.3234L50.8489 70.6728L50.4239 71.0506C49.7722 71.6361 48.9128 72.0045 48.0816 72.0423C47.6944 72.0706 47.1372 72.0328 46.8539 71.9667C46.1077 71.8061 44.8989 71.1923 44.2472 70.6445C43.9355 70.38 43.6522 70.1723 43.605 70.1723C43.52 70.1723 37.1544 66.3473 36.7955 66.0828C36.6444 65.9695 36.6161 65.8467 36.635 65.365C36.7105 63.5328 35.7189 61.8706 34.0472 61.0489C33.3766 60.7184 33.235 60.6806 32.3944 60.6523C31.5539 60.6145 30.9494 60.7089 30.3639 60.9734C30.3072 60.9923 30.2694 60.6239 30.2694 59.9534C30.2694 59.0845 30.2316 58.7634 30.0522 58.2534C29.6083 56.9689 28.56 55.76 27.4266 55.2311C26.6711 54.8817 25.6133 54.6645 24.7916 54.7023L24.1305 54.7306L24.0739 54.0695C23.7433 50.49 19.9089 48.3934 16.6883 50.0273C16.2916 50.2256 16.2161 50.235 16.1216 50.1217C16.0555 50.0367 15.7344 49.7628 15.3944 49.4889C14.1761 48.5256 13.515 47.4017 13.2222 45.8056L13.1183 45.2484L19.0872 35.445C22.3644 30.0523 25.0844 25.6039 25.1222 25.5567C25.3205 25.3489 29.8916 24.4045 32.0544 24.1306C34.4439 23.8284 36.8711 23.7245 38.6089 23.8661ZM20.1355 52.0578C20.655 52.275 21.2783 52.9173 21.5427 53.4839C21.7694 53.9939 21.7789 55.0423 21.5616 55.6845C21.3539 56.3078 20.6077 57.0539 19.9844 57.2617C19.0116 57.5923 17.9822 57.4034 17.2455 56.7517C16.0461 55.6939 15.9611 53.8239 17.0755 52.6717C17.9066 51.8028 19.0116 51.5856 20.1355 52.0578ZM26.3972 57.375C27.6344 57.9795 28.2294 59.4245 27.8044 60.7845C27.5777 61.5117 26.8127 62.3145 26.1233 62.5506C25.0561 62.9189 24.0077 62.645 23.2427 61.8045C21.165 59.5378 23.6677 56.0339 26.3972 57.375ZM33.0461 63.1739C34.3494 63.8445 34.68 65.4878 33.7261 66.5928C32.4416 68.1039 30.0333 67.1689 30.0333 65.1667C30.0333 64.2695 30.5244 63.5045 31.3555 63.1173C31.7427 62.9378 32.64 62.9661 33.0461 63.1739ZM36.7294 68.8217C37.3055 69.1806 37.7777 69.4923 37.7777 69.5206C37.7777 69.615 37.4 69.7 37.0033 69.7C36.5311 69.7 35.7283 69.3884 35.3222 69.0484L34.9916 68.7745L35.2655 68.4817C35.4261 68.3211 35.5772 68.1889 35.615 68.1889C35.6622 68.1889 36.1628 68.4723 36.7294 68.8217Z" fill="white"/>
</svg>
