<svg width="41" height="41" viewBox="0 0 41 41" fill="none" xmlns="http://www.w3.org/2000/svg">
<g clip-path="url(#clip0_12_443)">
<path d="M20.5001 3.41675C29.9352 3.41675 37.5834 11.065 37.5834 20.5001C37.5834 29.9352 29.9352 37.5834 20.5001 37.5834C11.065 37.5834 3.41675 29.9352 3.41675 20.5001C3.41675 11.065 11.065 3.41675 20.5001 3.41675ZM20.5001 6.83341C16.8755 6.83341 13.3993 8.27329 10.8363 10.8363C8.27329 13.3993 6.83341 16.8755 6.83341 20.5001C6.83341 24.1247 8.27329 27.6009 10.8363 30.1639C13.3993 32.7269 16.8755 34.1667 20.5001 34.1667C24.1247 34.1667 27.6009 32.7269 30.1639 30.1639C32.7269 27.6009 34.1667 24.1247 34.1667 20.5001C34.1667 16.8755 32.7269 13.3993 30.1639 10.8363C27.6009 8.27329 24.1247 6.83341 20.5001 6.83341ZM20.5001 10.2501C20.9185 10.2501 21.3224 10.4038 21.6351 10.6818C21.9477 10.9599 22.1475 11.343 22.1965 11.7585L22.2084 11.9584V19.7928L26.8329 24.4173C27.1393 24.7247 27.3171 25.1372 27.3304 25.5711C27.3436 26.0049 27.1913 26.4275 26.9042 26.7531C26.6171 27.0786 26.2169 27.2827 25.7849 27.3238C25.3528 27.365 24.9212 27.2402 24.5779 26.9747L24.4173 26.8329L19.2923 21.7079C19.0268 21.4421 18.8563 21.0963 18.8071 20.7239L18.7917 20.5001V11.9584C18.7917 11.5053 18.9717 11.0708 19.2921 10.7504C19.6125 10.4301 20.047 10.2501 20.5001 10.2501Z" fill="white"/>
</g>
<defs>
<clipPath id="clip0_12_443">
<rect width="41" height="41" fill="white"/>
</clipPath>
</defs>
</svg>
