<svg width="67" height="66" viewBox="0 0 67 66" fill="none" xmlns="http://www.w3.org/2000/svg">
<path d="M19 2.47111H20.1875C20.8525 2.47111 21.375 3.0329 21.375 3.69239C21.375 4.3763 20.8525 4.91366 20.1875 4.91366H19V9.98684C19.3729 10.109 19.7339 10.2897 20.0664 10.5315L34.7486 21.3129C34.9896 21.4661 35.1974 21.6685 35.3592 21.9076C35.5211 22.1466 35.6335 22.4173 35.6896 22.7029C35.7457 22.9884 35.7442 23.2827 35.6853 23.5677C35.6264 23.8526 35.5112 24.1221 35.347 24.3595C35.1828 24.5968 34.973 24.797 34.7305 24.9476C34.4881 25.0983 34.2182 25.1962 33.9375 25.2352C33.6568 25.2743 33.3713 25.2538 33.0986 25.1749C32.826 25.096 32.5719 24.9604 32.3522 24.7765L30.875 23.6969V31.7817H62.453C63.6096 31.7817 64.6689 32.4876 65.1035 33.5843L66.3812 36.7963C66.4806 37.0539 66.5168 37.3327 66.4866 37.6082C66.4565 37.8836 66.361 38.1472 66.2085 38.3757C66.0559 38.6042 65.8511 38.7907 65.6121 38.9186C65.373 39.0465 65.107 39.112 64.8375 39.1094H64.125V65.9774H4.75V23.7115L3.2965 24.7789C1.94275 25.8048 0.02375 24.7789 0 23.0447C0 22.3632 0.3325 21.7038 0.87875 21.3129L15.5563 10.5315C15.8834 10.2949 16.2438 10.1113 16.625 9.98684V4.91366H15.4375C14.7725 4.91366 14.25 4.3763 14.25 3.69239C14.25 3.00848 14.7725 2.47111 15.4375 2.47111H16.625V1.24984C16.625 0.565925 17.1475 0.0285645 17.8125 0.0285645C18.4775 0.0285645 19 0.565925 19 1.24984V2.47111ZM17.8125 36.6668C21.0876 36.6668 23.75 33.9531 23.75 30.5604C23.75 27.1922 21.0876 24.4541 17.8125 24.4541C16.2382 24.4554 14.7287 25.0991 13.6154 26.244C12.5022 27.3889 11.8763 28.9413 11.875 30.5604C11.875 33.9287 14.5374 36.6668 17.8125 36.6668ZM38.0238 58.6498H45.1488V47.6583C45.1488 45.631 43.5575 43.9945 41.5863 43.9945C39.615 43.9945 38.0238 45.631 38.0238 47.6583V58.6498ZM26.125 63.5349V54.9859C26.125 50.2718 22.3962 46.437 17.8125 46.437C13.2288 46.437 9.5 50.2718 9.5 54.9859V63.5349H26.125ZM49.8988 47.6583V58.6498H57.0238V47.6583C57.0238 45.631 55.4325 43.9945 53.4613 43.9945C51.49 43.9945 49.8988 45.631 49.8988 47.6583Z" fill="white"/>
<path d="M57.0239 16.6134V16.7111C57.0239 18.0789 56.6202 19.3735 55.9314 20.4238C54.2214 22.8663 52.0602 24.9913 49.5902 26.6523C49.3289 26.8232 49.0202 26.8965 48.7114 26.8965C48.4027 26.8965 48.0939 26.8232 47.8327 26.6523C45.3627 24.9913 43.2014 22.8663 41.4914 20.4238C40.8027 19.3735 40.3989 18.0789 40.3989 16.7111V16.6134C40.4227 14.1708 42.3227 12.2412 44.6739 12.2412C45.0064 12.2412 45.3627 12.2901 45.6714 12.3878C46.8589 12.632 47.8564 13.4136 48.4264 14.4639C48.4977 14.5861 48.5927 14.6349 48.7114 14.6349C48.8302 14.6349 48.9252 14.5861 48.9964 14.4639C49.5664 13.4136 50.5639 12.632 51.7514 12.3878C52.0602 12.2901 52.4164 12.2412 52.7489 12.2412C55.1002 12.2412 57.0002 14.1708 57.0239 16.6134Z" fill="white"/>
</svg>
