<svg width="59" height="59" viewBox="0 0 59 59" fill="none" xmlns="http://www.w3.org/2000/svg">
<path d="M0 6.76046C0 4.38325 1.92733 2.45837 4.30208 2.45837H35.0312C37.4085 2.45837 39.3333 4.38325 39.3333 6.76046V30.1146C39.3333 31.2556 38.8801 32.3499 38.0733 33.1567C37.2665 33.9635 36.1722 34.4167 35.0312 34.4167H19.8166L13.4889 40.742C12.988 41.2427 12.3499 41.5836 11.6552 41.7217C10.9606 41.8598 10.2406 41.7889 9.58627 41.5179C8.93194 41.2469 8.37263 40.788 7.97904 40.1992C7.58545 39.6104 7.37525 38.9181 7.375 38.2099V34.4167H4.30208C3.1611 34.4167 2.06685 33.9635 1.26005 33.1567C0.453254 32.3499 0 31.2556 0 30.1146L0 6.76046ZM4.30208 6.14587C4.13909 6.14587 3.98276 6.21062 3.86751 6.32588C3.75225 6.44114 3.6875 6.59746 3.6875 6.76046V30.1146C3.6875 30.4539 3.96283 30.7292 4.30208 30.7292H9.21875C9.70774 30.7292 10.1767 30.9235 10.5225 31.2692C10.8682 31.615 11.0625 32.084 11.0625 32.573V37.9542L17.7492 31.27C18.0946 30.9242 18.5633 30.7296 19.0521 30.7292H35.0312C35.1942 30.7292 35.3506 30.6645 35.4658 30.5492C35.5811 30.4339 35.6458 30.2776 35.6458 30.1146V6.76046C35.6458 6.59746 35.5811 6.44114 35.4658 6.32588C35.3506 6.21062 35.1942 6.14587 35.0312 6.14587H4.30208ZM54.6979 20.8959H46.0938C45.6048 20.8959 45.1358 20.7016 44.79 20.3559C44.4442 20.0101 44.25 19.5411 44.25 19.0521C44.25 18.5631 44.4442 18.0942 44.79 17.7484C45.1358 17.4026 45.6048 17.2084 46.0938 17.2084H54.6979C57.0727 17.2084 59 19.1357 59 21.5105V44.8646C59 46.0056 58.5467 47.0999 57.7399 47.9067C56.9331 48.7135 55.8389 49.1667 54.6979 49.1667H51.625V52.9599C51.6248 53.6681 51.4146 54.3604 51.021 54.9492C50.6274 55.538 50.0681 55.9969 49.4137 56.2679C48.7594 56.5389 48.0394 56.6098 47.3448 56.4717C46.6501 56.3336 46.012 55.9927 45.5111 55.492L39.1834 49.1667H26.4271C25.2861 49.1667 24.1918 48.7135 23.385 47.9067C22.5783 47.0999 22.125 46.0056 22.125 44.8646V41.2632C22.125 40.7742 22.3193 40.3052 22.665 39.9594C23.0108 39.6137 23.4798 39.4194 23.9688 39.4194C24.4577 39.4194 24.9267 39.6137 25.2725 39.9594C25.6182 40.3052 25.8125 40.7742 25.8125 41.2632V44.8646C25.8125 45.2039 26.0878 45.4792 26.4271 45.4792H39.9479C40.4371 45.4792 40.9067 45.6734 41.2508 46.02L47.9375 52.7042V47.323C47.9375 46.834 48.1317 46.365 48.4775 46.0192C48.8233 45.6735 49.2923 45.4792 49.7812 45.4792H54.6979C54.8609 45.4792 55.0172 45.4145 55.1325 45.2992C55.2477 45.1839 55.3125 45.0276 55.3125 44.8646V21.5105C55.3125 21.3475 55.2477 21.1911 55.1325 21.0759C55.0172 20.9606 54.8609 20.8959 54.6979 20.8959ZM27.73 13.5946L15.4383 25.8863C15.2672 26.0574 15.0641 26.1931 14.8405 26.2857C14.617 26.3783 14.3774 26.426 14.1354 26.426C13.8934 26.426 13.6538 26.3783 13.4303 26.2857C13.2067 26.1931 13.0036 26.0574 12.8325 25.8863C12.6614 25.7152 12.5257 25.5121 12.4331 25.2885C12.3405 25.065 12.2928 24.8253 12.2928 24.5834C12.2928 24.3414 12.3405 24.1018 12.4331 23.8782C12.5257 23.6547 12.6614 23.4516 12.8325 23.2805L25.1242 10.9888C25.2953 10.8177 25.4984 10.682 25.7219 10.5894C25.9455 10.4968 26.1851 10.4491 26.4271 10.4491C26.6691 10.4491 26.9087 10.4968 27.1322 10.5894C27.3558 10.682 27.5589 10.8177 27.73 10.9888C27.9011 11.1599 28.0368 11.363 28.1294 11.5866C28.222 11.8101 28.2697 12.0497 28.2697 12.2917C28.2697 12.5337 28.222 12.7733 28.1294 12.9968C28.0368 13.2204 27.9011 13.4235 27.73 13.5946Z" fill="white"/>
</svg>
