<svg width="76" height="79" viewBox="0 0 76 79" fill="none" xmlns="http://www.w3.org/2000/svg">
<path fill-rule="evenodd" clip-rule="evenodd" d="M57 29.3106C59.4232 29.3104 61.7548 30.2626 63.5178 31.9722C65.2809 33.6819 66.342 36.0198 66.4842 38.5076L66.5 39.0808V48.851C66.5 50.9353 65.2998 52.5604 63.707 53.3029L63.3333 53.456V65.1346C63.3338 66.7779 62.7304 68.3606 61.6439 69.5656C60.5575 70.7705 59.0683 71.5086 57.475 71.6318L57 71.6481H19C17.4022 71.6486 15.8632 71.028 14.6916 69.9106C13.52 68.7933 12.8023 67.2618 12.6825 65.6231L12.6667 65.1346V53.4592C11.8118 53.153 11.0607 52.6002 10.5031 51.8667C9.94547 51.1333 9.60494 50.2503 9.52217 49.3232L9.5 48.851V39.0808C9.49987 36.5887 10.4257 34.1907 12.0881 32.3776C13.7504 30.5644 16.0237 29.473 18.4427 29.3268L19 29.3106H57ZM56.7878 51.1307C56.2966 50.7515 55.7087 50.5275 55.0959 50.4859C54.483 50.4443 53.8716 50.5868 53.3362 50.8962L52.9878 51.1307L52.1455 51.782C50.5916 52.9812 48.7175 53.6616 46.7759 53.7315C44.8344 53.8014 42.9186 53.2574 41.287 52.1728L40.7455 51.782L39.9 51.1307C39.4088 50.7515 38.8209 50.5275 38.208 50.4859C37.5952 50.4443 36.9838 50.5868 36.4483 50.8962L36.1 51.1307L35.2545 51.782C33.7009 52.9805 31.8274 53.6605 29.8865 53.7303C27.9456 53.8002 26.0305 53.2566 24.3992 52.1728L23.8545 51.782L23.0122 51.1307C22.5209 50.7515 21.9331 50.5275 21.3202 50.4859C20.7074 50.4443 20.096 50.5868 19.5605 50.8962L19.2122 51.1307L19 51.2935V65.1346H57V51.2935L56.7878 51.1307ZM57 35.824H19C18.1601 35.824 17.3547 36.1671 16.7608 36.7779C16.167 37.3887 15.8333 38.217 15.8333 39.0808V45.6105C17.4692 44.4866 19.404 43.9128 21.3706 43.9682C23.3372 44.0236 25.2386 44.7056 26.8122 45.9199L27.6545 46.5712C28.2026 46.994 28.8693 47.2226 29.5545 47.2226C30.2397 47.2226 30.9064 46.994 31.4545 46.5712L32.3 45.9199C33.9444 44.6515 35.9445 43.9659 38 43.9659C40.0555 43.9659 42.0556 44.6515 43.7 45.9199L44.5455 46.5712C45.0936 46.994 45.7603 47.2226 46.4455 47.2226C47.1307 47.2226 47.7974 46.994 48.3455 46.5712L49.1878 45.9199C50.7614 44.7056 52.6628 44.0236 54.6294 43.9682C56.596 43.9128 58.5308 44.4866 60.1667 45.6105V39.0808C60.1667 38.217 59.833 37.3887 59.2392 36.7779C58.6453 36.1671 57.8399 35.824 57 35.824ZM39.9 7.16477C41.2091 8.2165 42.4246 9.38593 43.5322 10.6592C45.1915 12.5775 47.5 15.8114 47.5 19.5404C47.5 22.1316 46.4991 24.6167 44.7175 26.4489C42.9359 28.2812 40.5196 29.3106 38 29.3106C35.4804 29.3106 33.0641 28.2812 31.2825 26.4489C29.5009 24.6167 28.5 22.1316 28.5 19.5404C28.5 15.8114 30.8117 12.5775 32.4678 10.6592C33.5754 9.38593 34.7909 8.2165 36.1 7.16477C36.6481 6.74198 37.3148 6.51343 38 6.51343C38.6852 6.51343 39.3519 6.74198 39.9 7.16477ZM38 14.1146C37.7248 14.3976 37.4577 14.6886 37.1988 14.9874C35.6915 16.7331 34.8333 18.3842 34.8333 19.5404C34.8333 20.4041 35.167 21.2325 35.7608 21.8432C36.3547 22.454 37.1601 22.7971 38 22.7971C38.8399 22.7971 39.6453 22.454 40.2392 21.8432C40.833 21.2325 41.1667 20.4041 41.1667 19.5404C41.1667 18.3842 40.3117 16.7331 38.8012 14.9874C38.5423 14.6886 38.2752 14.3976 38 14.1146Z" fill="white"/>
</svg>
