<svg width="61" height="61" viewBox="0 0 61 61" fill="none" xmlns="http://www.w3.org/2000/svg">
<g clip-path="url(#clip0_15_496)">
<path fill-rule="evenodd" clip-rule="evenodd" d="M29.0258 5.08337C27.7507 5.08344 26.5222 5.56271 25.5839 6.42614C24.6456 7.28956 24.0661 8.47409 23.9603 9.74479L22.9868 21.4415L18.6457 24.334C17.6012 25.0302 16.7448 25.9735 16.1524 27.0802C15.5601 28.1869 15.2501 29.4227 15.25 30.678V48.2917C15.25 50.314 16.0533 52.2534 17.4833 53.6834C18.9133 55.1134 20.8527 55.9167 22.875 55.9167H38.125C40.1473 55.9167 42.0867 55.1134 43.5167 53.6834C44.9467 52.2534 45.75 50.314 45.75 48.2917V30.678C45.7499 29.4227 45.4399 28.1869 44.8476 27.0802C44.2552 25.9735 43.3988 25.0302 42.3543 24.334L38.0132 21.4415L37.0397 9.74479C36.9339 8.47409 36.3544 7.28956 35.4161 6.42614C34.4778 5.56271 33.2493 5.08344 31.9742 5.08337H29.0258ZM40.6667 35.5834H30.5C29.8259 35.5834 29.1794 35.8512 28.7028 36.3278C28.2261 36.8045 27.9583 37.4509 27.9583 38.125C27.9583 38.7991 28.2261 39.4456 28.7028 39.9223C29.1794 40.3989 29.8259 40.6667 30.5 40.6667H40.6667V48.2917C40.6667 48.9658 40.3989 49.6123 39.9222 50.0889C39.4456 50.5656 38.7991 50.8334 38.125 50.8334H22.875C22.2009 50.8334 21.5544 50.5656 21.0778 50.0889C20.6011 49.6123 20.3333 48.9658 20.3333 48.2917V30.678C20.3333 30.2596 20.4365 29.8477 20.6338 29.4788C20.8311 29.11 21.1164 28.7955 21.4644 28.5633L25.8055 25.6709C26.4426 25.2464 26.9755 24.6835 27.3645 24.0242C27.7536 23.3649 27.9887 22.6263 28.0524 21.8635L29.0258 10.1667H31.9742L32.9476 21.8635C33.0113 22.6263 33.2464 23.3649 33.6355 24.0242C34.0245 24.6835 34.5574 25.2464 35.1945 25.6709L39.5356 28.5633C39.8836 28.7955 40.1689 29.11 40.3662 29.4788C40.5635 29.8477 40.6667 30.2596 40.6667 30.678V35.5834Z" fill="white"/>
</g>
<defs>
<clipPath id="clip0_15_496">
<rect width="61" height="61" fill="white"/>
</clipPath>
</defs>
</svg>
