<svg width="63" height="59" viewBox="0 0 63 59" fill="none" xmlns="http://www.w3.org/2000/svg">
<path d="M31.4999 56.1435C46.1629 56.1435 58.0499 45.3443 58.0499 32.0231C58.0499 18.7019 46.1629 7.90259 31.4999 7.90259C16.837 7.90259 4.94995 18.7019 4.94995 32.0231C4.94995 45.3443 16.837 56.1435 31.4999 56.1435Z" stroke="white" stroke-width="4" stroke-linejoin="round"/>
<path d="M22.65 2.54248C28.55 2.54248 31.1313 6.56256 31.5 7.90259C31.6225 6.56256 32.385 3.6145 34.45 2.54248M41.825 41.4032C41.825 41.4032 38.875 46.7633 31.5 46.7633C24.125 46.7633 21.175 41.4032 21.175 41.4032" stroke="white" stroke-width="4" stroke-linecap="round" stroke-linejoin="round"/>
<path d="M41.825 41.4033C41.825 41.4033 44.0375 36.0432 40.35 36.0432C36.6625 36.0432 35.925 45.4234 35.925 45.4234M44.775 25.323H38.875M21.175 22.6429V28.003M2 29.3431V34.7032M61 29.3431V34.7032" stroke="white" stroke-width="4" stroke-linecap="round" stroke-linejoin="round"/>
</svg>
