<svg width="40" height="50" viewBox="0 0 40 50" fill="none" xmlns="http://www.w3.org/2000/svg">
<path d="M20 25C21.375 25 22.5525 24.5108 23.5325 23.5325C24.5125 22.5542 25.0017 21.3767 25 20C24.9983 18.6233 24.5092 17.4467 23.5325 16.47C22.5558 15.4933 21.3783 15.0033 20 15C18.6217 14.9967 17.445 15.4867 16.47 16.47C15.495 17.4533 15.005 18.63 15 20C14.995 21.37 15.485 22.5475 16.47 23.5325C17.455 24.5175 18.6317 25.0067 20 25ZM20 50C13.2917 44.2917 8.28167 38.99 4.97 34.095C1.65833 29.2 0.00166667 24.6683 0 20.5C0 14.25 2.01083 9.27083 6.0325 5.5625C10.0542 1.85417 14.71 0 20 0C25.29 0 29.9467 1.85417 33.97 5.5625C37.9933 9.27083 40.0033 14.25 40 20.5C40 24.6667 38.3442 29.1983 35.0325 34.095C31.7208 38.9917 26.71 44.2933 20 50Z" fill="black"/>
</svg>
