<svg width="46" height="44" viewBox="0 0 46 44" fill="none" xmlns="http://www.w3.org/2000/svg">
<path d="M40.8889 0C42.2444 0 43.5445 0.515078 44.503 1.43192C45.4615 2.34877 46 3.59228 46 4.88889V39.1111C46 40.4077 45.4615 41.6512 44.503 42.5681C43.5445 43.4849 42.2444 44 40.8889 44H5.11111C3.75556 44 2.45553 43.4849 1.49701 42.5681C0.53849 41.6512 0 40.4077 0 39.1111V4.88889C0 3.59228 0.53849 2.34877 1.49701 1.43192C2.45553 0.515078 3.75556 0 5.11111 0H40.8889ZM39.6111 37.8889V24.9333C39.6111 22.8199 38.7334 20.7929 37.171 19.2985C35.6086 17.804 33.4895 16.9644 31.28 16.9644C29.1078 16.9644 26.5778 18.2356 25.3511 20.1422V17.4289H18.2211V37.8889H25.3511V25.8378C25.3511 23.9556 26.9356 22.4156 28.9033 22.4156C29.8522 22.4156 30.7622 22.7761 31.4332 23.4179C32.1042 24.0597 32.4811 24.9301 32.4811 25.8378V37.8889H39.6111ZM9.91556 13.5911C11.0542 13.5911 12.1462 13.1584 12.9514 12.3883C13.7566 11.6181 14.2089 10.5736 14.2089 9.48445C14.2089 7.21111 12.2922 5.35333 9.91556 5.35333C8.77011 5.35333 7.67159 5.78857 6.86164 6.56331C6.05169 7.33804 5.59667 8.38881 5.59667 9.48445C5.59667 11.7578 7.53889 13.5911 9.91556 13.5911ZM13.4678 37.8889V17.4289H6.38889V37.8889H13.4678Z" fill="#000000"/>
</svg>
