<svg width="56" height="35" viewBox="0 0 56 35" fill="none" xmlns="http://www.w3.org/2000/svg">
<path d="M28 10.3502C25.9747 10.3502 24.0324 11.0777 22.6003 12.3725C21.1682 13.6674 20.3636 15.4236 20.3636 17.2548C20.3636 19.086 21.1682 20.8422 22.6003 22.137C24.0324 23.4319 25.9747 24.1593 28 24.1593C30.0253 24.1593 31.9676 23.4319 33.3997 22.137C34.8318 20.8422 35.6364 19.086 35.6364 17.2548C35.6364 15.4236 34.8318 13.6674 33.3997 12.3725C31.9676 11.0777 30.0253 10.3502 28 10.3502ZM28 28.7623C24.6245 28.7623 21.3873 27.5499 19.0005 25.3918C16.6136 23.2338 15.2727 20.3068 15.2727 17.2548C15.2727 14.2028 16.6136 11.2758 19.0005 9.11768C21.3873 6.95959 24.6245 5.74719 28 5.74719C31.3755 5.74719 34.6127 6.95959 36.9995 9.11768C39.3864 11.2758 40.7273 14.2028 40.7273 17.2548C40.7273 20.3068 39.3864 23.2338 36.9995 25.3918C34.6127 27.5499 31.3755 28.7623 28 28.7623ZM28 -0.0065918C15.2727 -0.0065918 4.40364 7.15112 0 17.2548C4.40364 27.3584 15.2727 34.5161 28 34.5161C40.7273 34.5161 51.5964 27.3584 56 17.2548C51.5964 7.15112 40.7273 -0.0065918 28 -0.0065918Z" fill="white"/>
</svg>
