<svg width="60" height="60" viewBox="0 0 60 60" fill="none" xmlns="http://www.w3.org/2000/svg">
<circle cx="30" cy="30" r="30" fill="black"/>
<path d="M18 42C17.175 42 16.469 41.7065 15.882 41.1195C15.295 40.5325 15.001 39.826 15 39V21C15 20.175 15.294 19.469 15.882 18.882C16.47 18.295 17.176 18.001 18 18H42C42.825 18 43.5315 18.294 44.1195 18.882C44.7075 19.47 45.001 20.176 45 21V39C45 39.825 44.7065 40.5315 44.1195 41.1195C43.5325 41.7075 42.826 42.001 42 42H18ZM30 31.5L42 24V21L30 28.5L18 21V24L30 31.5Z" fill="#E6D9CA"/>
</svg>
