<svg width="46" height="70" viewBox="0 0 46 70" fill="none" xmlns="http://www.w3.org/2000/svg">
<path d="M17.007 11.3384V22.6809L17.1041 22.857C17.1591 22.953 17.2858 23.0851 17.383 23.1531L17.5646 23.2732L22.664 23.2852L27.7591 23.2932L27.9492 23.2052C28.059 23.1491 28.19 23.0411 28.266 22.941L28.3928 22.7649L28.4055 11.3824L28.4139 -0.000126754H22.7104H17.007V11.3384Z" fill="white"/>
<path d="M13.5423 1.46082C13.5212 1.47683 13.5972 1.98112 14.0915 5.06288C14.1845 5.65522 14.6238 8.42081 15.0675 11.2064C15.5068 13.992 15.8955 16.4134 15.9293 16.5895C15.98 16.8696 15.9885 15.9131 15.9927 9.17324L15.9969 1.44081H14.7802C14.1084 1.44081 13.5507 1.44881 13.5423 1.46082Z" fill="white"/>
<path d="M15.6357 20.4396C14.8541 20.9359 14.2584 21.7204 13.9964 22.6049C13.9119 22.901 13.9077 23.0011 13.8908 25.1583L13.8781 27.3996L13.5951 27.5157C13.0797 27.7198 11.7531 28.3722 11.1996 28.6884C7.40998 30.8456 4.34278 33.9834 2.41205 37.6815C1.19953 40.0028 0.455968 42.3762 0.151783 44.8976C-0.042558 46.5106 -0.0510076 48.2396 0.130659 49.7684C0.595386 53.7267 2.09519 57.3448 4.57514 60.4986C5.81723 62.0755 7.54518 63.7084 9.25622 64.9251C13.8021 68.155 19.6196 69.6398 25.2893 69.0155C29.7085 68.5312 33.7262 66.8902 37.2033 64.1567C37.8792 63.6284 39.4635 62.1235 40.0296 61.4791C43.0123 58.0852 44.7783 54.1509 45.2937 49.7684C45.7923 45.538 44.9051 41.0795 42.8138 37.3013C40.845 33.7393 37.8581 30.7375 34.267 28.7044C33.6755 28.3722 32.3659 27.7318 31.8293 27.5157L31.5462 27.3996L31.5336 25.1583C31.5167 23.0011 31.5124 22.901 31.428 22.6049C31.2336 21.9485 30.883 21.3802 30.3844 20.9079C30.1309 20.6718 29.5395 20.2515 29.455 20.2515C29.4423 20.2515 29.4296 20.7878 29.4296 21.4402C29.4296 22.9171 29.3747 23.1892 29.0071 23.5894L28.8804 23.7255V25.1143V26.5031L28.7875 26.4791C28.4621 26.387 27.1778 26.1189 26.6708 26.0348C23.6163 25.5225 20.4942 25.6106 17.4439 26.291C17.0552 26.379 16.6919 26.4631 16.6412 26.4791L16.544 26.5031V25.1143V23.7255L16.4172 23.5894C16.0497 23.1892 15.9948 22.9171 15.9948 21.4402C15.9948 20.7878 15.9821 20.2515 15.9652 20.2515C15.9441 20.2515 15.8004 20.3396 15.6357 20.4396ZM24.0641 28.8765C27.6975 29.1166 31.3435 30.3973 34.2205 32.4465C35.7161 33.5111 37.1906 34.9119 38.2594 36.2807C41.8252 40.8433 43.0039 46.6466 41.4914 52.1698C41.1239 53.5026 40.6929 54.5792 40.017 55.8519C39.0368 57.689 37.9088 59.1658 36.3794 60.6146C34.8205 62.0915 33.2446 63.1721 31.3097 64.0886C29.2606 65.0572 27.2877 65.6095 24.8246 65.9057C24.0092 66.0017 21.4152 66.0017 20.5998 65.9057C18.1367 65.6095 16.1638 65.0572 14.1147 64.0886C13.2402 63.6724 12.9191 63.4963 12.0235 62.932C8.41126 60.6587 5.71162 57.3168 4.30476 53.3705C3.43445 50.9331 3.10914 48.1555 3.38375 45.57C3.74708 42.1401 5.061 38.9342 7.22832 36.2007C8.31831 34.8239 9.71672 33.5031 11.2039 32.4465C14.8245 29.869 19.4887 28.5763 24.0641 28.8765Z" fill="white"/>
<path d="M21.0153 34.2996C20.7618 34.3396 20.6139 34.4156 20.4196 34.5997C20.1281 34.8799 20.1154 34.9359 20.09 35.9565L20.0689 36.873L19.5619 37.0211C18.7128 37.2653 17.6819 37.6815 17.0144 38.0577L16.7947 38.1778L16.1061 37.5454C15.3498 36.853 15.2653 36.801 14.8302 36.805C14.3992 36.809 14.2852 36.8931 12.9839 38.1298C12.2361 38.8422 11.7841 39.3064 11.7207 39.4225C11.5813 39.6786 11.5813 40.1309 11.7207 40.3831C11.7756 40.4831 12.101 40.8313 12.4474 41.1635L13.0727 41.7638L12.8783 42.084C12.4685 42.7644 12.0967 43.6009 11.8094 44.4934L11.6785 44.9016L10.7194 44.9136C9.65057 44.9257 9.57452 44.9457 9.29146 45.2338C8.9915 45.534 8.99995 45.462 8.98728 47.343C8.9746 49.2321 8.97883 49.2721 9.25344 49.5803C9.33371 49.6684 9.49003 49.7844 9.6041 49.8365C9.78999 49.9205 9.86603 49.9285 10.749 49.9485L11.6996 49.9685L11.7334 50.1086C11.9193 50.825 12.4094 51.9737 12.8192 52.6541L13.0769 53.0863L12.4305 53.7067C12.0756 54.0509 11.7461 54.4031 11.7038 54.4911C11.6447 54.6032 11.6193 54.7393 11.6193 54.9514C11.6193 55.4157 11.6827 55.4957 13.0304 56.7644C14.3232 57.9851 14.3866 58.0332 14.8513 58.0332C15.2822 58.0332 15.4174 57.9491 16.1441 57.2687L16.782 56.6684L17.1792 56.8765C17.8931 57.2487 18.7973 57.6089 19.5915 57.833C19.8197 57.8971 20.0267 57.9611 20.052 57.9731C20.0731 57.9891 20.09 58.3694 20.09 58.8656C20.09 59.6901 20.0943 59.7421 20.1914 59.9342C20.3097 60.1744 20.559 60.3985 20.8125 60.4906C20.9772 60.5506 21.1969 60.5546 22.7728 60.5466C24.7415 60.5346 24.712 60.5386 25.0119 60.2544C25.2865 59.9903 25.3034 59.9102 25.3288 58.8977L25.3499 57.9851L26.0893 57.753C26.9258 57.4929 27.4961 57.2607 28.1721 56.9085L28.6368 56.6684L29.2747 57.2687C29.7015 57.669 29.9761 57.8971 30.1028 57.9491C30.3605 58.0612 30.7999 58.0612 31.0449 57.9531C31.2857 57.8451 33.5587 55.6878 33.6981 55.4317C33.7784 55.2916 33.7995 55.1875 33.7995 54.9514C33.7995 54.5512 33.7108 54.4031 33.17 53.8708C32.9376 53.6386 32.663 53.3665 32.5616 53.2664L32.3842 53.0863L32.6968 52.506C33.0686 51.8256 33.3812 51.0972 33.584 50.4408L33.7277 49.9685L34.6698 49.9485C35.5528 49.9285 35.6288 49.9205 35.8147 49.8365C35.9288 49.7844 36.0851 49.6684 36.1654 49.5803C36.44 49.2721 36.4442 49.2321 36.4316 47.343C36.4189 45.6861 36.4189 45.6421 36.3259 45.482C36.2245 45.3059 36.0133 45.1098 35.7936 44.9977C35.6795 44.9377 35.519 44.9257 34.6994 44.9136L33.7404 44.9016L33.6728 44.6735C33.6347 44.5494 33.5714 44.3493 33.5333 44.2293L33.4573 44.0171L31.1759 46.2784L28.8945 48.5437L28.8185 48.8559C28.5692 49.8725 28.0073 50.841 27.2088 51.6255C26.3047 52.518 25.2063 53.0903 23.8924 53.3545C23.3178 53.4705 22.2574 53.4826 21.6617 53.3785C17.8593 52.7181 15.5399 49.004 16.7567 45.526C17.4707 43.4968 19.2451 41.992 21.4631 41.5357C22.0715 41.4116 23.1108 41.3916 23.7445 41.4957C25.0162 41.7038 26.1061 42.2241 27.0272 43.0566C27.437 43.4288 27.4454 43.4368 27.5215 43.3608C27.7496 43.1326 32.2575 38.614 32.4095 38.462L32.5954 38.2818L31.9279 37.6295C31.1675 36.885 31.0238 36.801 30.5675 36.805C30.407 36.809 30.2211 36.841 30.1282 36.881C30.031 36.9211 29.6888 37.1972 29.2916 37.5654L28.6241 38.1818L28.3622 38.0337C27.6693 37.6495 26.5793 37.2092 25.7639 36.9891L25.3499 36.877L25.3288 35.9565C25.3077 35.1 25.2992 35.028 25.2105 34.8519C25.0964 34.6318 24.9232 34.4837 24.6528 34.3636C24.4712 34.2836 24.3909 34.2796 22.8362 34.2716C21.9405 34.2675 21.1209 34.2796 21.0153 34.2996Z" fill="white"/>
<path d="M35.0933 37.4054C34.9919 37.4414 34.8356 37.5135 34.7469 37.5695C34.6582 37.6255 33.9357 38.3219 33.1372 39.1144C32.343 39.9108 31.4896 40.7593 31.2445 41.0035C30.6615 41.5758 30.0489 42.1881 29.1068 43.1247C25.5453 46.6747 24.7595 47.4471 24.7172 47.4471C24.6919 47.4471 23.9948 46.7027 23.1752 45.7902C22.195 44.7016 21.6162 44.0932 21.4937 44.0212C20.9741 43.709 20.2094 43.793 19.7742 44.2093C19.3306 44.6375 19.2588 45.3499 19.6052 45.8622C19.7024 46.0063 23.3949 50.1247 23.6695 50.3928C23.7498 50.4769 23.9145 50.5929 24.037 50.653C24.2314 50.757 24.2905 50.769 24.6539 50.769C25.1566 50.769 25.3678 50.681 25.7312 50.3288C25.8706 50.1927 28.3801 47.6913 31.3079 44.7736C35.4355 40.6553 36.6607 39.4145 36.7579 39.2344C36.872 39.0343 36.8846 38.9703 36.8846 38.6661C36.8846 38.394 36.8635 38.2779 36.7832 38.1138C36.665 37.8617 36.3481 37.5695 36.0693 37.4534C35.8073 37.3414 35.3426 37.3173 35.0933 37.4054Z" fill="white"/>
</svg>
