<svg width="60" height="60" viewBox="0 0 60 60" fill="none" xmlns="http://www.w3.org/2000/svg">
<path d="M30 0C13.4314 0 0 13.4314 0 30C0 46.5686 13.4314 60 30 60C46.5686 60 60 46.5686 60 30C60 13.4314 46.5686 0 30 0ZM19.2188 11.9165C19.8369 11.8801 20.3955 12.2495 20.8191 12.9053L24.9207 20.6835C25.3525 21.6052 25.1071 22.5922 24.4629 23.2507L22.5842 25.1294C22.4683 25.2883 22.392 25.4672 22.3902 25.664C23.1106 28.4528 25.296 31.0252 27.2242 32.7942C29.1523 34.5632 31.2247 36.9582 33.9148 37.5256C34.2473 37.6184 34.6547 37.6516 34.8926 37.4305L37.0752 35.2076C37.8286 34.6365 38.9185 34.3598 39.7229 34.8267H39.7595L47.1605 39.1956C48.2469 39.8765 48.3595 41.1928 47.5817 41.9935L42.4841 47.0508C41.7313 47.8228 40.7313 48.0823 39.7596 48.0835C35.4622 47.9547 31.4017 45.8456 28.0665 43.678C22.592 39.6954 17.5704 34.7557 14.4178 28.7879C13.2087 26.2854 11.7883 23.0924 11.9239 20.2992C11.936 19.2484 12.2202 18.2189 12.9602 17.5416L18.0579 12.4439C18.455 12.106 18.8478 11.9384 19.2188 11.9165Z" fill="black"/>
</svg>
