<svg width="57" height="54" viewBox="0 0 57 54" fill="none" xmlns="http://www.w3.org/2000/svg">
<g clip-path="url(#clip0_6_351)">
<path d="M26.0886 0.0934677C23.1195 0.368408 20.6094 0.93478 17.9598 1.93556C15.1592 2.99133 12.3528 4.55848 10.232 6.2521C8.97114 7.26388 7.106 9.07298 6.12985 10.2332C4.37511 12.3063 2.65524 15.2481 1.60937 17.959C0.894687 19.8231 0.331079 22.0666 0.116094 23.9472C0.0812315 24.2496 0.0347483 25.3109 0.0173171 26.3117C-0.0175453 28.1922 0.0463691 29.6439 0.20325 30.7382C0.854014 35.1647 2.84698 39.6682 5.79866 43.3744C7.07114 44.9745 9.36625 47.1575 11.0803 48.4003C15.3568 51.4961 20.9929 53.5691 26.0305 53.888C27.1461 53.9595 29.8072 53.9595 30.9228 53.888C34.3626 53.6626 37.9476 52.6783 41.5733 50.9627C45.6754 49.0161 49.4638 45.8103 52.1017 42.0657C54.5479 38.5849 56.1109 34.7578 56.7326 30.7382C56.9302 29.4625 56.9941 26.834 56.8837 24.882C56.6338 20.6754 54.9139 15.9629 52.1889 12.0478C50.3644 9.4249 47.5464 6.6975 44.7806 4.87741C41.0852 2.45245 36.1347 0.643345 32.0442 0.225441C30.7427 0.0879707 26.995 0.00548935 26.0886 0.0934677ZM30.8008 2.6449C31.7305 2.98033 32.7647 3.66768 33.7292 4.58597C35.2399 6.01566 36.5531 7.92373 37.6513 10.2882C38.0522 11.135 38.6448 12.5867 38.6797 12.7902C38.7088 12.9606 38.6971 12.9826 38.5112 13.0541C37.721 13.3675 34.1476 13.8019 30.7659 13.9944C30.4464 14.0109 30.0455 14.0384 29.8769 14.0549L29.5632 14.0879L29.5864 8.34714C29.6039 4.14057 29.6271 2.57342 29.6794 2.46344L29.7433 2.31498L30.0513 2.39746C30.2198 2.44695 30.5568 2.55692 30.8008 2.6449ZM27.2448 2.6669C27.3146 2.89235 27.332 3.89862 27.3494 8.47911L27.3727 14.0219H26.8497C25.1531 14.0219 19.6158 13.417 18.5525 13.1146C18.291 13.0431 18.2445 13.0046 18.2445 12.8946C18.2445 12.5977 19.0987 10.5796 19.7843 9.26543C21.2834 6.38957 23.3286 4.06359 25.2635 3.04081C25.9491 2.67789 26.7393 2.36996 26.9601 2.38096C27.1519 2.39196 27.1693 2.40845 27.2448 2.6669ZM21.2659 3.23877C21.202 3.33225 20.8708 3.73366 20.5396 4.13507C20.2026 4.53648 19.7436 5.10836 19.517 5.41079C18.5525 6.68101 17.2974 9.01799 16.4375 11.1515C15.9436 12.3722 15.9029 12.4272 15.5195 12.4272C15.3277 12.4272 13.7531 11.9543 12.6375 11.5639C11.0571 11.014 9.36044 10.2772 9.30814 10.1232C9.27909 10.0408 10.4702 8.91901 11.3418 8.20967C13.0268 6.84047 15.0662 5.56475 16.9953 4.67395C17.7971 4.30553 18.4886 4.04159 20.8302 3.22777C21.3705 3.04081 21.417 3.04081 21.2659 3.23877ZM36.4311 3.34325C39.9987 4.476 42.8748 6.00466 45.5825 8.19867C46.5528 8.99049 47.587 9.96928 47.587 10.1067C47.587 10.2497 46.7039 10.6621 45.1641 11.2395C43.6185 11.8224 41.1201 12.6032 41.0503 12.5262C41.0445 12.5152 40.8644 12.0698 40.6494 11.5309C40.173 10.3157 39.7721 9.45789 39.0399 8.0722C38.0928 6.2796 37.6571 5.63624 36.1928 3.89862C35.6292 3.22777 35.5188 3.07931 35.5769 3.07931C35.5828 3.07931 35.9721 3.20028 36.4311 3.34325ZM8.18674 12.0973C10.0751 12.9936 12.6724 13.9449 14.7118 14.4838C14.8919 14.5333 15.0779 14.6102 15.1243 14.6542C15.2231 14.7422 15.2057 14.8357 14.9384 15.9025C14.3806 18.1185 13.9681 20.9009 13.7415 23.9472C13.695 24.6125 13.6427 25.3384 13.6195 25.5528L13.5846 25.9542H7.91946H2.24851L2.28918 25.3439C2.53322 21.5387 3.8638 17.5466 6.03108 14.1319C6.6005 13.2356 7.59407 11.8829 7.68704 11.8774C7.71028 11.8774 7.93689 11.9763 8.18674 12.0973ZM49.7311 12.4602C51.5672 14.8192 53.1185 17.9865 53.9088 20.9888C54.2516 22.2755 54.5595 24.1176 54.6525 25.3879L54.6932 25.9542H49.0222H43.3513L43.3222 25.7178C43.3048 25.5913 43.2467 24.882 43.2002 24.1396C42.9794 20.9668 42.6133 18.4704 41.9684 15.8145C41.7476 14.8962 41.7185 14.7147 41.7825 14.6542C41.8289 14.6157 42.1369 14.5058 42.4739 14.4123C44.2461 13.9284 46.5586 13.0816 48.4005 12.2403C48.8305 12.0478 49.2023 11.8829 49.2314 11.8829C49.2546 11.8774 49.4812 12.1413 49.7311 12.4602ZM18.3201 15.2866C20.4176 15.71 24.8626 16.1609 26.9195 16.1664H27.3669V21.0603V25.9542H21.661H15.961L16.0017 24.816C16.0831 22.2591 16.4782 19.2842 17.0592 16.7988C17.3149 15.688 17.4136 15.3911 17.5589 15.2701C17.7042 15.1546 17.6693 15.1546 18.3201 15.2866ZM39.2956 15.2261C39.4873 15.2976 39.5745 15.5285 39.8534 16.7163C40.2601 18.4759 40.5681 20.362 40.754 22.2151C40.8586 23.2213 40.9632 24.9425 40.9632 25.5528V25.9542H35.269H29.5748V21.0713V16.1884L31.0448 16.1224C33.6828 16.0014 37.291 15.5945 38.6971 15.2646C39.098 15.1656 39.1213 15.1656 39.2956 15.2261ZM13.5962 28.0878C13.5962 28.1098 13.6485 28.8356 13.7124 29.6934C13.9913 33.4326 14.3109 35.5551 15.0721 38.6784C15.1825 39.1238 15.1999 39.2998 15.1534 39.3548C15.1185 39.3933 14.9442 39.4647 14.7641 39.5142C12.8699 40.0091 10.1623 40.9934 8.41334 41.8237L7.67542 42.1756L7.33842 41.7467C4.45065 38.0515 2.5797 33.2071 2.28918 28.6596L2.24851 28.0438H7.91946C11.0455 28.0438 13.5962 28.0603 13.5962 28.0878ZM27.3552 32.9762L27.3669 37.8866H26.443C24.5604 37.8866 20.4118 38.31 18.5467 38.6894C18.1806 38.7609 17.8262 38.8214 17.7565 38.8214C17.4776 38.8214 17.3904 38.6179 17.0883 37.3367C16.4782 34.7413 16.0889 31.8214 16.0017 29.2095L15.961 28.0438L21.6494 28.0548L27.3378 28.0713L27.3552 32.9762ZM40.9399 29.0995C40.8295 32.0469 40.4054 35.0932 39.7372 37.7656C39.5396 38.5464 39.4467 38.7499 39.2491 38.7994C39.1736 38.8159 38.8656 38.7829 38.5693 38.7224C36.71 38.3375 33.1366 37.9526 30.9286 37.9031L29.5748 37.8701V32.9597V28.0438H35.2748H40.9806L40.9399 29.0995ZM54.6583 28.1318C54.6757 28.1757 54.6583 28.5552 54.6234 28.9676C54.1818 33.6745 52.5317 37.8811 49.6091 41.7192L49.2662 42.1756L48.7607 41.9337C46.9944 41.0924 44.5308 40.1686 42.7528 39.6737C42.2705 39.5417 41.8406 39.3988 41.7941 39.3548C41.7243 39.2888 41.7476 39.1183 41.9742 38.1835C42.6133 35.4946 42.9794 33.0532 43.2002 29.8859C43.2467 29.1875 43.3048 28.4892 43.3222 28.3297L43.3513 28.0438H48.9873C54.0714 28.0438 54.6234 28.0548 54.6583 28.1318ZM27.361 44.6611C27.3552 49.8024 27.3204 51.5346 27.21 51.639C27.117 51.727 26.0479 51.3806 25.4029 51.0452C24.113 50.3853 22.6837 49.0876 21.4984 47.5095C20.4467 46.1128 19.5228 44.4081 18.6222 42.2306C18.1806 41.1584 18.1632 41.0924 18.3317 40.9879C18.7152 40.7515 22.4454 40.2621 25.217 40.0861C26.3733 40.0146 26.6638 39.9981 27.0647 39.9871L27.3669 39.9761L27.361 44.6611ZM31.3993 40.0586C34.6415 40.2841 37.6455 40.658 38.4531 40.9439C38.6158 41.0044 38.6971 41.0649 38.6971 41.1309C38.6971 41.4003 37.8139 43.4678 37.1574 44.7326C35.6118 47.7129 33.4271 50.1379 31.4632 51.0727C30.888 51.3476 30.1849 51.6115 29.9118 51.661C29.7201 51.694 29.7026 51.6885 29.662 51.5401C29.6387 51.4576 29.6097 48.8182 29.5922 45.6784L29.5632 39.9761H29.8711C30.0396 39.9761 30.7253 40.0146 31.3993 40.0586ZM42.0962 41.7577C43.7464 42.2251 44.9724 42.6485 46.361 43.2424C47.1164 43.5613 47.558 43.7868 47.6161 43.8803C47.6626 43.9517 46.9479 44.6501 46.0182 45.4419C43.206 47.8339 40.3066 49.423 36.5182 50.6438C36.0418 50.7977 35.6292 50.9132 35.6002 50.9022C35.5711 50.8967 35.8617 50.5118 36.2393 50.0554C37.7094 48.3013 38.2032 47.5699 39.191 45.6674C39.8185 44.4521 40.295 43.4074 40.7366 42.2746C40.9748 41.6587 41.0736 41.4718 41.1375 41.4883C41.184 41.4993 41.6198 41.6258 42.0962 41.7577ZM16.3271 42.6155C16.8733 43.9407 17.3962 45.0405 18.0935 46.3272C18.9185 47.8449 19.3659 48.4882 20.7372 50.1214C21.0974 50.5448 21.3647 50.8967 21.3357 50.9077C21.3066 50.9132 20.8185 50.7702 20.2433 50.5833C16.85 49.478 14.2993 48.1308 11.6497 46.0578C10.6968 45.3099 9.35463 44.0507 9.35463 43.9023C9.35463 43.8143 9.48245 43.7318 9.95891 43.5063C11.4464 42.8135 15.4032 41.4773 15.8042 41.5323C15.8565 41.5378 16.054 41.9392 16.3271 42.6155Z" fill="white"/>
</g>
<defs>
<clipPath id="clip0_6_351">
<rect width="57" height="53.998" fill="white"/>
</clipPath>
</defs>
</svg>
