<svg width="50" height="64" viewBox="0 0 50 64" fill="none" xmlns="http://www.w3.org/2000/svg">
<path d="M49.1565 22.6186L42.3559 1.62961C42.2036 1.15936 41.8879 0.746543 41.456 0.452824C41.0242 0.159106 40.4994 0.000253606 39.96 0H10.04C9.50064 0.000253606 8.97582 0.159106 8.54397 0.452824C8.11213 0.746543 7.79643 1.15936 7.64406 1.62961L0.843498 22.6186C-0.223474 25.8357 -0.279314 29.2598 0.682283 32.5042C1.64388 35.7486 3.58459 38.684 6.28519 40.9787C10.7276 44.7649 16.4355 47.0924 22.5009 47.5908V59.052H12.5047C11.8419 59.052 11.2063 59.2913 10.7376 59.7172C10.269 60.1432 10.0057 60.7209 10.0057 61.3232C10.0057 61.9256 10.269 62.5033 10.7376 62.9292C11.2063 63.3552 11.8419 63.5945 12.5047 63.5945H37.4953C38.1581 63.5945 38.7937 63.3552 39.2624 62.9292C39.731 62.5033 39.9943 61.9256 39.9943 61.3232C39.9943 60.7209 39.731 60.1432 39.2624 59.7172C38.7937 59.2913 38.1581 59.052 37.4953 59.052H27.4991V47.5908C33.5644 47.092 39.2722 44.7646 43.7148 40.9787C46.4154 38.684 48.3561 35.7486 49.3177 32.5042C50.2793 29.2598 50.2235 25.8357 49.1565 22.6186ZM11.9081 4.54246H38.0919L44.3677 23.9019C44.3958 23.987 44.4208 24.0722 44.4458 24.1574C37.7546 26.3378 30.2199 23.7031 26.1308 21.8209C18.2619 18.2011 12.0143 17.7412 7.40664 18.4339L11.9081 4.54246ZM40.3067 37.6599C36.157 41.1912 30.6849 43.1562 25 43.1562C19.3151 43.1562 13.843 41.1912 9.69328 37.6599C7.67242 35.9387 6.22126 33.7384 5.50367 31.3073C4.78608 28.8762 4.83064 26.3112 5.63231 23.9019L5.77289 23.4703C9.52147 22.3177 15.4786 22.0111 23.8692 25.875C27.3522 27.4791 32.9782 29.5232 38.9978 29.5232C41.0097 29.5321 43.013 29.2836 44.9487 28.785C44.6937 32.1708 43.0348 35.3425 40.3067 37.6599Z" fill="white"/>
</svg>
